<svg aria-label="Facebook" role="img" focusable="false" viewBox="0 0 16 16" class="cl cm b5 b6"><path d="M14.667 0H1.333C.597 0 0 .597 0 1.333v13.334C0 15.403.597 16 1.333 16h7.334v-6h-2V7.333h2V5.61c0-2.067 1.262-3.192 3.106-3.192.883 0 1.642.066 1.863.095v2.16h-1.279c-1.002 0-1.196.477-1.196 1.176v1.485h2.96L13.454 10h-2.293v6h3.506c.736 0 1.333-.597 1.333-1.333V1.333C16 .597 15.403 0 14.667 0z"></path></svg>
                <svg aria-label="Twitter" role="img" focusable="false" viewBox="0 0 14 12" class="cl cm b5 b6"><path fill-rule="evenodd" clip-rule="evenodd" d="M13.973 1.429a5.556 5.556 0 01-1.649.476A3.02 3.02 0 0013.587.231c-.554.34-1.169.59-1.823.728A2.792 2.792 0 009.668 0c-1.585 0-2.87 1.356-2.87 3.025 0 .24.026.47.074.692-2.385-.12-4.5-1.328-5.916-3.154-.249.443-.388.96-.388 1.522 0 1.051.507 1.976 1.276 2.52a2.754 2.754 0 01-1.3-.378v.036c0 1.467.988 2.692 2.302 2.97a2.776 2.776 0 01-1.29.052c.368 1.202 1.426 2.077 2.685 2.102A5.566 5.566 0 010 10.641 7.856 7.856 0 004.407 12c5.282 0 8.168-4.611 8.168-8.604 0-.13 0-.259-.01-.388.56-.424 1.05-.959 1.435-1.567l-.027-.012z"></path></svg>